<svg xmlns="http://www.w3.org/2000/svg" xmlns:xlink="http://www.w3.org/1999/xlink" width="60" height="60" viewBox="0 0 60 60"><defs><style>.a{fill:none;}.b{clip-path:url(#a);}.c{fill:#3b6c39;}</style><clipPath id="a"><rect class="a" width="60" height="60"/></clipPath></defs><g class="b"><path class="c" d="M55.714,32H4.272A4.3,4.3,0,0,0,0,36.326V87.674A4.3,4.3,0,0,0,4.272,92H55.714A4.316,4.316,0,0,0,60,87.674V36.326A4.316,4.316,0,0,0,55.714,32ZM18.134,83.429H9.241V54.795h8.906V83.429ZM13.688,50.884a5.156,5.156,0,1,1,5.156-5.156A5.158,5.158,0,0,1,13.688,50.884ZM51.469,83.429H42.576V69.5c0-3.321-.067-7.594-4.621-7.594-4.634,0-5.344,3.616-5.344,7.353v14.17H23.719V54.795H32.25v3.911h.121a9.367,9.367,0,0,1,8.424-4.621c9,0,10.674,5.933,10.674,13.647Z" transform="translate(0 -32)"/></g></svg>