<svg xmlns="http://www.w3.org/2000/svg" xmlns:xlink="http://www.w3.org/1999/xlink" width="60" height="60" viewBox="0 0 60 60"><defs><style>.a{fill:none;}.b{clip-path:url(#a);}.c{fill:#3b6c39;}</style><clipPath id="a"><rect class="a" width="60" height="60"/></clipPath></defs><g class="b"><path class="c" d="M53.571,32H6.429A6.43,6.43,0,0,0,0,38.429V85.571A6.43,6.43,0,0,0,6.429,92H53.571A6.43,6.43,0,0,0,60,85.571V38.429A6.43,6.43,0,0,0,53.571,32ZM47.022,53.268c.027.375.027.763.027,1.138,0,11.612-8.839,24.991-24.991,24.991A24.876,24.876,0,0,1,8.571,75.46a18.508,18.508,0,0,0,2.116.107,17.611,17.611,0,0,0,10.9-3.75,8.8,8.8,0,0,1-8.21-6.094,9.467,9.467,0,0,0,3.964-.161,8.784,8.784,0,0,1-7.031-8.625V56.83a8.778,8.778,0,0,0,3.964,1.112,8.765,8.765,0,0,1-3.911-7.313A8.674,8.674,0,0,1,11.558,46.2a24.941,24.941,0,0,0,18.107,9.188,8.8,8.8,0,0,1,14.987-8.022,17.212,17.212,0,0,0,5.571-2.116,8.761,8.761,0,0,1-3.857,4.835,17.48,17.48,0,0,0,5.062-1.366A18.488,18.488,0,0,1,47.022,53.268Z" transform="translate(0 -32)"/></g></svg>