<svg xmlns="http://www.w3.org/2000/svg" xmlns:xlink="http://www.w3.org/1999/xlink" width="60" height="60" viewBox="0 0 60 60"><defs><style>.a{fill:none;}.b{clip-path:url(#a);}.c{fill:#3b6c39;}</style><clipPath id="a"><rect class="a" width="60" height="60"/></clipPath></defs><g class="b"><path class="c" d="M25.018,54.781l12.75,7.246-12.75,7.246ZM60,38.429V85.571A6.43,6.43,0,0,1,53.571,92H6.429A6.43,6.43,0,0,1,0,85.571V38.429A6.43,6.43,0,0,1,6.429,32H53.571A6.43,6.43,0,0,1,60,38.429ZM54.375,62.04s0-7.982-1.018-11.813a6.113,6.113,0,0,0-4.312-4.339C45.254,44.857,30,44.857,30,44.857s-15.254,0-19.045,1.031a6.113,6.113,0,0,0-4.312,4.339C5.625,54.045,5.625,62.04,5.625,62.04s0,7.982,1.018,11.812a6.025,6.025,0,0,0,4.312,4.272C14.746,79.143,30,79.143,30,79.143s15.254,0,19.045-1.031a6.025,6.025,0,0,0,4.313-4.272c1.018-3.817,1.018-11.8,1.018-11.8Z" transform="translate(0 -32)"/></g></svg>