<svg xmlns="http://www.w3.org/2000/svg" width="80.988" height="78.758" viewBox="0 0 80.988 78.758"><defs><style>.a{fill:#3b6c39;}</style></defs><g transform="translate(0 0)"><path class="a" d="M69.288,43.518a1.347,1.347,0,0,0-1.952,0L59.53,51.324a6.94,6.94,0,0,0-4.042-1.255,7.3,7.3,0,1,0,7.388,7.388,6.319,6.319,0,0,0-1.394-4.182l7.667-7.667A1.406,1.406,0,0,0,69.288,43.518ZM58.833,60.664a4.9,4.9,0,0,1-6.552,0,4.8,4.8,0,0,1-1.394-3.206,4.037,4.037,0,0,1,1.394-3.206,4.9,4.9,0,0,1,6.552,0,4.8,4.8,0,0,1,1.394,3.206A5.2,5.2,0,0,1,58.833,60.664Z" transform="translate(-10.185 -13.13)"/><path class="a" d="M25.1,52.894a1.317,1.317,0,0,0,1.394,1.394H50.609a1.394,1.394,0,1,0,0-2.788H26.494A1.317,1.317,0,0,0,25.1,52.894Z" transform="translate(-19.245 -9.821)"/><path class="a" d="M22.294,45.888H46.409a1.394,1.394,0,1,0,0-2.788H22.294a1.394,1.394,0,1,0,0,2.788Z" transform="translate(-20.9 -13.13)"/><path class="a" d="M47.8,61.294A1.317,1.317,0,0,0,46.409,59.9H22.294a1.394,1.394,0,1,0,0,2.788H46.409A1.317,1.317,0,0,0,47.8,61.294Z" transform="translate(-20.9 -6.512)"/><path class="a" d="M86.218,40.836l1.394-1.394a4.09,4.09,0,0,0,2.23.558,4.7,4.7,0,0,0,4.739-4.739,4.585,4.585,0,0,0-4.6-4.739,4.7,4.7,0,0,0-4.739,4.739,3.63,3.63,0,0,0,.558,2.091l-1.533,1.533a34.44,34.44,0,0,0-21.745-8.642V24.388h5.018a1.394,1.394,0,1,0,0-2.788H54.855a1.394,1.394,0,0,0,0,2.788h4.879v5.855A34.821,34.821,0,0,0,35.618,41.255a1.38,1.38,0,0,0,1.952,1.952,32.358,32.358,0,0,1,45.721-1.394h0A31.988,31.988,0,0,1,93.467,65.23a32.33,32.33,0,0,1-55.2,22.861,1.38,1.38,0,1,0-1.952,1.952,34.8,34.8,0,0,0,24.812,10.315A35.159,35.159,0,0,0,96.255,65.23,34.343,34.343,0,0,0,86.218,40.836Zm3.764-7.527a1.952,1.952,0,0,1,0,3.9,2.248,2.248,0,0,1-1.255-.418c0-.139-.139-.139-.139-.279a.487.487,0,0,0-.279-.139,1.5,1.5,0,0,1-.279-1.115A1.906,1.906,0,0,1,89.982,33.309Z" transform="translate(-15.267 -21.6)"/><path class="a" d="M41.887,83.436a1.371,1.371,0,0,0,.418,1.952,29.285,29.285,0,1,0-.558-47.812,1.5,1.5,0,0,0-.279,1.952,1.474,1.474,0,0,0,1.952.279,25.672,25.672,0,0,1,15.473-5.018,26.485,26.485,0,0,1,0,52.97,25.527,25.527,0,0,1-14.915-4.6A1.631,1.631,0,0,0,41.887,83.436Z" transform="translate(-12.893 -17.503)"/></g></svg>