<svg xmlns="http://www.w3.org/2000/svg" width="47.045" height="43.96" viewBox="0 0 47.045 43.96"><defs><style>.a{fill:#3b6c39;}</style></defs><g transform="translate(0 0)"><path class="a" d="M84.331,9h-7.61a.609.609,0,0,0,0,1.217H83.74v7.221a.592.592,0,1,0,1.183,0V9.608A.6.6,0,0,0,84.331,9Z" transform="translate(-37.878 -9)"/><path class="a" d="M9.591,18.046a.6.6,0,0,0,.591-.608V10.217H17.2A.609.609,0,0,0,17.2,9H9.591A.6.6,0,0,0,9,9.608v7.83A.6.6,0,0,0,9.591,18.046Z" transform="translate(-9 -9)"/><path class="a" d="M84.331,76.13a.6.6,0,0,0-.591.608v7.221H76.721a.609.609,0,0,0,0,1.217h7.61a.6.6,0,0,0,.591-.608v-7.83A.6.6,0,0,0,84.331,76.13Z" transform="translate(-37.878 -41.216)"/><path class="a" d="M17.2,83.959H10.183V76.738a.592.592,0,1,0-1.183,0v7.83a.6.6,0,0,0,.591.608H17.2a.609.609,0,0,0,0-1.217Z" transform="translate(-9 -41.216)"/><g transform="translate(6.478 13.331)"><path class="a" d="M24.665,34.325a.586.586,0,0,0,.432.232h.033a.583.583,0,0,0,.421-.181l7.723-8.065a.621.621,0,0,0-.006-.86L31.933,24.1a.507.507,0,0,0-.419-.175.583.583,0,0,0-.417.181l-5.758,6.013-1.791-2.345a.58.58,0,0,0-.83-.1l-1.474,1.191a.612.612,0,0,0-.222.406.62.62,0,0,0,.122.448ZM22.983,29l1.227,1.606.614.8a.58.58,0,0,0,.886.051l5.815-6.072.493.5-6.837,7.14-2.741-3.589Z" transform="translate(-18.855 -20.622)"/><path class="a" d="M33.521,18.5H17.951a.6.6,0,0,0-.591.608v16.02a.6.6,0,0,0,.591.608h15.57a.6.6,0,0,0,.591-.608V19.108A.6.6,0,0,0,33.521,18.5ZM32.93,34.52H18.542v-14.8H32.93Z" transform="translate(-17.359 -18.5)"/><path class="a" d="M50.16,26.9h9.914a.609.609,0,0,0,0-1.217H50.16a.609.609,0,0,0,0,1.217Z" transform="translate(-30.524 -21.314)"/><path class="a" d="M63.347,37.649H50.16a.609.609,0,0,0,0,1.217H63.347a.609.609,0,0,0,0-1.217Z" transform="translate(-30.524 -26)"/></g></g></svg>