<svg xmlns="http://www.w3.org/2000/svg" width="46.871" height="42.975" viewBox="0 0 46.871 42.975"><defs><style>.a{fill:#3b6c39;}</style></defs><g transform="translate(0)"><path class="a" d="M30.4.125A.749.749,0,0,0,29.981,0a.766.766,0,0,0-.763.765V42.21a.79.79,0,0,0,1.18.64l31.535-20.7a.764.764,0,0,0,.013-1.311Zm.348,40.669V2.181L60.154,21.488Z" transform="translate(-29.218)"/></g><g transform="translate(45.343)"><path class="a" d="M465.344,0a.766.766,0,0,0-.765.765V42.21a.764.764,0,1,0,1.528,0V.765A.766.766,0,0,0,465.344,0Z" transform="translate(-464.579)"/></g></svg>