<svg xmlns="http://www.w3.org/2000/svg" width="48.97" height="41.996" viewBox="0 0 48.97 41.996"><defs><style>.a{fill:#3b6c39;}</style></defs><g transform="translate(0 0)"><path class="a" d="M26.439,4.169a.693.693,0,0,0-.5.206L2.166,28.15a.705.705,0,1,0,1,1L26.439,5.869,49.721,29.147a.678.678,0,0,0,.495.2.687.687,0,0,0,.495-.2h0a.693.693,0,0,0,0-1L26.935,4.375a.693.693,0,0,0-.5-.206ZM9.626,27.944a.689.689,0,0,0-.7.7V45.461a.689.689,0,0,0,.7.7H43.255a.689.689,0,0,0,.7-.7V28.648a.7.7,0,1,0-1.405,0V44.757h-9.8V28.648a.693.693,0,0,0-.7-.7H20.838a.693.693,0,0,0-.7.7V44.757h-9.8V28.648a.693.693,0,0,0-.7-.7Zm11.916,1.405h9.8V44.755h-9.8V29.349Z" transform="translate(-1.955 -4.169)"/></g></svg>