<svg xmlns="http://www.w3.org/2000/svg" width="78.755" height="78.758" viewBox="0 0 78.755 78.758"><defs><style>.a{fill:#3b6c39;}</style></defs><path class="a" d="M41.413,28.4a1.358,1.358,0,0,0,1.92,0l15.78-15.78,3.589.718L10.184,65.857a1.372,1.372,0,0,0-.312.483L5.9,76.932,3.395,79.438a1.358,1.358,0,1,0,1.92,1.92l2.506-2.509,10.591-3.97a1.372,1.372,0,0,0,.483-.312L75.922,17.54l4.468-4.467a4.635,4.635,0,0,0,0-6.563L78.241,4.36a4.635,4.635,0,0,0-6.563,0L67.21,8.827l-2.2,2.2L58.932,9.814a1.264,1.264,0,0,0-.266-.023,1.358,1.358,0,0,0-.96.4L41.413,26.482A1.358,1.358,0,0,0,41.413,28.4ZM17.18,72.439l-7.79,2.921,2.921-7.79L39.657,40.224l4.869,4.869ZM46.446,43.173,41.577,38.3,68.17,11.711l4.869,4.869ZM73.6,6.284a1.966,1.966,0,0,1,2.724,0l2.141,2.149a1.921,1.921,0,0,1,0,2.724l-3.507,3.5L70.09,9.791Z" transform="translate(-2.997 -2.998)"/><path class="a" d="M44.3,4.356A4.625,4.625,0,0,0,40.988,3a4.558,4.558,0,0,0-3.241,1.348L33.266,8.827l-2.2,2.2L24.988,9.814a1.266,1.266,0,0,0-.266-.027,1.358,1.358,0,0,0-.96.4l-6.789,6.789a1.358,1.358,0,1,0,1.92,1.92l6.276-6.276,3.589.718L10.184,31.909a1.373,1.373,0,0,0-.312.483L5.9,42.983,3.395,45.49a1.358,1.358,0,1,0,1.92,1.92L7.821,44.9l10.591-3.97a1.373,1.373,0,0,0,.483-.312L41.978,17.536l4.468-4.467a4.635,4.635,0,0,0,0-6.563ZM17.18,38.49l-7.79,2.921,2.921-7.79L34.226,11.707l4.869,4.869ZM44.522,11.145l-3.507,3.511L36.146,9.787l3.521-3.521a1.967,1.967,0,0,1,2.716.014l2.14,2.149a1.921,1.921,0,0,1,0,2.724Z" transform="translate(30.947 30.95)"/></svg>