<svg xmlns="http://www.w3.org/2000/svg" width="76.476" height="78.507" viewBox="0 0 76.476 78.507"><defs><style>.a{fill:#3b6c39;}</style></defs><g transform="translate(0 0)"><path class="a" d="M93.469,17.063H40.186a2.45,2.45,0,0,0-2.507,2.384V40.459H21.566A2.044,2.044,0,0,0,19.5,42.475V93.553a2.043,2.043,0,0,0,2.066,2.016h71.9a2.45,2.45,0,0,0,2.507-2.384V19.447A2.45,2.45,0,0,0,93.469,17.063ZM55.7,93.188H22.007V42.841H55.7Zm.44-52.73H45.358V24.512H88.3v60.73H58.208V42.475A2.046,2.046,0,0,0,56.141,40.458Zm2.067,52.73V87.626H90.8v-65.5H42.85V40.459H40.186V19.447H93.469l0,73.741Z" transform="translate(-19.5 -17.063)"/><path class="a" d="M52.631,40.563H23.2V83.119H52.631ZM50.123,80.735H25.707V42.947H50.123V80.735Z" transform="translate(-18.561 -12.556)"/><ellipse class="a" cx="1.881" cy="1.788" rx="1.881" ry="1.788" transform="translate(17.474 71.506)"/></g></svg>