<svg xmlns="http://www.w3.org/2000/svg" width="71.189" height="79.46" viewBox="0 0 71.189 79.46"><defs><style>.a{fill:#3b6c39;}</style></defs><g transform="translate(0 0)"><path class="a" d="M90.877,33.594h4.791V44.466H90.877a24.4,24.4,0,0,1-1.843,4.514l3.409,3.409L84.8,60.035l-3.409-3.409a16.067,16.067,0,0,1-4.514,1.843V63.26H66.094V58.469a24.4,24.4,0,0,1-4.514-1.843l-3.409,3.409-7.647-7.647,3.409-3.409a16.067,16.067,0,0,1-1.843-4.514H47.3V33.594h4.791a24.4,24.4,0,0,1,1.843-4.514l-3.409-3.409,7.647-7.647,3.409,3.409a16.066,16.066,0,0,1,4.514-1.843V14.8H76.781v4.791A24.4,24.4,0,0,1,81.3,21.433L84.7,18.025l7.647,7.647L88.942,29.08A21.51,21.51,0,0,1,90.877,33.594Zm-2.4-7.831L84.8,22.078l-2.948,2.948-.921-.553a16.215,16.215,0,0,0-5.712-2.3l-1.106-.276V17.656H68.858v4.238l-1.106.276a18.156,18.156,0,0,0-5.712,2.3l-.921.645-2.948-3.04-3.685,3.685,2.948,2.948-.553.921a16.215,16.215,0,0,0-2.3,5.712L54.3,36.45H50.064V41.7H54.3l.276,1.106a18.156,18.156,0,0,0,2.3,5.712l.645.921-2.948,2.948,3.685,3.685,2.948-2.948.921.553a16.215,16.215,0,0,0,5.712,2.3l1.106.276V60.5H74.2V56.258l1.106-.276a18.156,18.156,0,0,0,5.712-2.3l.921-.645,2.948,2.948L88.574,52.3l-2.948-2.948.553-.921a16.215,16.215,0,0,0,2.3-5.712l.184-1.013H92.9V36.45H88.666l-.276-1.106a18.156,18.156,0,0,0-2.3-5.712l-.645-.921Z" transform="translate(-42.287 -14.8)"/><path class="a" d="M71.868,52.836A13.468,13.468,0,1,1,85.336,39.368,13.462,13.462,0,0,1,71.868,52.836Zm0-24.278a10.81,10.81,0,1,0,10.81,10.81A10.853,10.853,0,0,0,71.868,28.558Z" transform="translate(-42.49 -15.365)"/><path class="a" d="M63.173,79.289a27.551,27.551,0,0,1-14.958-4.4L29.338,93.767a5.769,5.769,0,1,1-8.159-8.159L40.057,66.651a25.6,25.6,0,0,1-3.04-6.319c-.24-.8-.48-1.68-.72-2.48a1.193,1.193,0,1,1,2.32-.56c.16.8.4,1.52.64,2.32A25.147,25.147,0,1,0,67.012,26.9a1.21,1.21,0,0,1,.32-2.4,27.557,27.557,0,0,1-4.159,54.791ZM22.859,92.007a3.479,3.479,0,0,0,4.8,0L45.9,73.77l-4.8-4.8L22.779,87.288A3.46,3.46,0,0,0,22.859,92.007Z" transform="translate(-19.5 -15.987)"/></g></svg>