<svg xmlns="http://www.w3.org/2000/svg" width="42.975" height="45.751" viewBox="0 0 42.975 45.751"><defs><style>.a{fill:#3b6c39;}</style></defs><g transform="translate(0 0)"><g transform="translate(0 33.094) rotate(-90)"><g transform="translate(0 0.015)"><path class="a" d="M1.18,42.836a.749.749,0,0,1-.417.125A.766.766,0,0,1,0,42.2V.75A.79.79,0,0,1,1.18.11l31.535,20.7a.764.764,0,0,1,.013,1.311Zm.348-40.67V40.779L30.936,21.473Z"/></g><g transform="translate(-12.657 0)"><path class="a" d="M.765,42.975A.766.766,0,0,1,0,42.21V.765a.764.764,0,1,1,1.528,0V42.21A.766.766,0,0,1,.765,42.975Z"/></g></g></g></svg>