<svg xmlns="http://www.w3.org/2000/svg" width="292.757" height="112.121" viewBox="0 0 292.757 112.121">
  <defs>
    <style>
      .cls-1 {
        fill: none;
      }

      .cls-2, .cls-4 {
        fill: #17311b;
      }

      .cls-3, .cls-4 {
        stroke: none;
      }
    </style>
  </defs>
  <g id="Group_342" data-name="Group 342" transform="translate(-60 -27)">
    <g id="Group_313" data-name="Group 313" transform="translate(0 15)">
      <g id="Path_94" data-name="Path 94" class="cls-1" transform="translate(116.061 12) rotate(45)">
        <path class="cls-3" d="M10.043,0h59.2A10.043,10.043,0,0,1,79.282,10.043v59.2A10.043,10.043,0,0,1,69.239,79.282h-59.2A10.043,10.043,0,0,1,0,69.239v-59.2A10.043,10.043,0,0,1,10.043,0Z"/>
        <path class="cls-4" d="M 10.04259490966797 0 L 10.04259490966797 1.699996948242188 C 5.442466735839844 1.699996948242188 1.699996948242188 5.442481994628906 1.699996948242188 10.04261016845703 L 1.70001220703125 69.23891448974609 C 1.70001220703125 73.83904266357422 5.442489624023438 77.58152770996094 10.04261779785156 77.58152770996094 L 69.23892974853516 77.58155059814453 C 73.83906555175781 77.58155059814453 77.58155059814453 73.83906555175781 77.58155059814453 69.23892974853516 L 77.58152770996094 10.04261779785156 C 77.58152770996094 5.442489624023438 73.83904266357422 1.70001220703125 69.23891448974609 1.70001220703125 L 10.04259490966797 1.699996948242188 L 10.04259490966797 0 M 10.04259490966797 0 L 69.23891448974609 7.62939453125e-06 C 74.78531646728516 7.62939453125e-06 79.28152465820312 4.496231079101562 79.28152465820312 10.04261779785156 L 79.28154754638672 69.23892974853516 C 79.28154754638672 74.78532409667969 74.78532409667969 79.28154754638672 69.23892974853516 79.28154754638672 L 10.04261779785156 79.28152465820312 C 4.496231079101562 79.28152465820312 7.62939453125e-06 74.78531646728516 7.62939453125e-06 69.23891448974609 L 0 10.04261016845703 C 0 4.496223449707031 4.496223449707031 0 10.04259490966797 0 Z"/>
      </g>
      <g id="Group_128" data-name="Group 128" transform="translate(87.589 36.234)">
        <g id="Group_5" data-name="Group 5" transform="translate(18.567 31.95)">
          <g id="Group_4" data-name="Group 4">
            <path id="Path_8" data-name="Path 8" class="cls-2" d="M80.256,102.915l-9.405-5.271-.074-.041-9.1,5.339-.14.082v10.621l9.237,5.429.148.087.151-.085,9.247-5.239.077-.043v-10.8ZM70.78,97.951l9.162,5.134-9.016,5.153-8.936-5.128Zm0,20.773-8.938-5.253V103.381l8.938,5.129Zm9.323-5.108-9.024,5.113V108.51l9.024-5.157Z" transform="translate(-60.885 -96.964)"/>
            <path id="Path_9" data-name="Path 9" class="cls-2" d="M69.651,118.585l-.3-.177-.092.052-.026-.122-9.51-5.589V101.958l-.1-.06.1-.091v-.321l.3-.175v-.1l.086.05,9.4-5.514,9.791,5.487.086-.049.016.106.283.159v.347l.12.067-.12.092V112.9l-9.623,5.454v.117l-.1-.06Zm.7-10.967v8.946l7.927-4.492v-8.984Zm-9.237,4.315,7.84,4.608v-8.924l-7.84-4.5Zm.707-10.046,7.832,4.495,7.89-4.509-8.029-4.5Z" transform="translate(-59.616 -95.747)"/>
          </g>
        </g>
        <g id="Group_7" data-name="Group 7" transform="translate(0 31.956)">
          <g id="Group_6" data-name="Group 6">
            <path id="Path_10" data-name="Path 10" class="cls-2" d="M25.64,102.931,16.234,97.66l-.074-.041-9.1,5.339-.14.082v10.621l9.237,5.429.148.087.151-.085,9.247-5.24.077-.043v-10.8Zm-9.476-4.964,9.162,5.134-9.016,5.152-8.936-5.128Zm0,20.773-8.938-5.253V103.4l8.938,5.128Zm9.323-5.108-9.024,5.113V108.526l9.024-5.157Z" transform="translate(-6.269 -96.98)"/>
            <path id="Path_11" data-name="Path 11" class="cls-2" d="M15.035,118.6l-.3-.177-.092.052-.026-.122L5.1,112.767V101.976l-.1-.06.1-.091v-.32l.3-.176v-.1l.086.05.028-.017,9.367-5.5,9.791,5.486.086-.049.016.106.284.158v.348l.121.068-.121.092V112.92l-9.623,5.453v.117l-.1-.06Zm.7-10.967v8.946l7.926-4.491v-8.984ZM6.5,111.951l7.84,4.608v-8.924l-7.84-4.5Zm.707-10.046,7.832,4.495,7.891-4.509-8.03-4.5Z" transform="translate(-5 -95.765)"/>
          </g>
        </g>
        <g id="Group_9" data-name="Group 9" transform="translate(27.796 15.906)">
          <g id="Group_8" data-name="Group 8">
            <path id="Path_12" data-name="Path 12" class="cls-2" d="M107.091,56.348l-9.256-5.271-.073-.042-8.954,5.339-.138.083V67.079l9.091,5.429.146.087.149-.086,9.1-5.239.075-.043v-10.8Zm-9.326-4.964,9.016,5.134-8.873,5.152-8.795-5.128Zm0,20.773-8.8-5.253V56.814l8.8,5.129Zm9.175-5.108-8.881,5.113V61.944l8.881-5.157Z" transform="translate(-88.023 -50.394)"/>
            <path id="Path_13" data-name="Path 13" class="cls-2" d="M96.644,72.017l-.3-.178-.1.056-.026-.131-9.36-5.59V55.385l-.1-.058.1-.091v-.318l.295-.176v-.111l.094.055L96.5,49.173l9.635,5.487.094-.054.015.116.28.159v.347l.114.064-.114.092V66.33l-9.47,5.451v.128l-.109-.065Zm.7-10.973v8.941l7.784-4.481V56.525Zm-9.09,4.321,7.7,4.6v-8.92l-7.7-4.488Zm.691-10.048,7.7,4.492,7.761-4.506-7.9-4.5Z" transform="translate(-86.766 -49.173)"/>
          </g>
        </g>
        <g id="Group_11" data-name="Group 11" transform="translate(37.114 31.975)">
          <g id="Group_10" data-name="Group 10">
            <path id="Path_14" data-name="Path 14" class="cls-2" d="M125.481,119.236l.151-.085,9.247-5.239.077-.043v-10.8l-.142-.079-9.405-5.271-.074-.042-9.1,5.339-.14.082v10.621l9.237,5.429m0-21.123,9.162,5.134-9.017,5.152-8.936-5.128Zm0,20.772-8.938-5.253V103.455l8.938,5.129Zm9.323-5.108-9.024,5.113V108.584l9.024-5.157Z" transform="translate(-115.443 -97.037)"/>
            <path id="Path_15" data-name="Path 15" class="cls-2" d="M124.614,118.546l-.1-.06-.031.018-.029-.053-.241-.141-.4.224v-.165l-.026.044-9.511-5.59V102.032l-.1-.06.1-.091v-.32l.3-.176v-.1l.087.05.028-.017,9.369-5.5,9.79,5.487.086-.049.015.105.285.158v.348l.12.067-.12.092v10.948l-9.623,5.451Zm.3-10.854v8.946l7.926-4.492v-8.984Zm-9.238,4.315,7.841,4.608v-8.924l-7.841-4.5Zm.707-10.046,7.834,4.495,7.889-4.509-8.03-4.5Z" transform="translate(-114.175 -95.82)"/>
          </g>
        </g>
        <g id="Group_13" data-name="Group 13" transform="translate(9.243 15.908)">
          <g id="Group_12" data-name="Group 12">
            <path id="Path_16" data-name="Path 16" class="cls-2" d="M52.811,56.348l-9.4-5.271-.074-.042-9.089,5.339-.14.083V67.079l9.229,5.429.148.087.151-.086,9.238-5.239.076-.043v-10.8Zm-9.467-4.964L52.5,56.519,43.49,61.671l-8.928-5.128Zm0,20.773L34.41,66.9V56.814l8.929,5.129Zm9.314-5.108-9.016,5.113V61.944l9.016-5.157Z" transform="translate(-33.458 -50.396)"/>
            <path id="Path_17" data-name="Path 17" class="cls-2" d="M42.215,72.018l-.3-.178-.092.052-.026-.122-9.5-5.589V55.391l-.1-.06.1-.091v-.32l.3-.176v-.1l.087.049,9.387-5.514,9.781,5.488.087-.05.017.108.283.159v.346l.12.067-.12.092V66.335L42.62,71.788v.118l-.1-.06Zm.7-10.967V70l7.918-4.491V56.522Zm-9.228,4.315,7.832,4.608V61.05l-7.832-4.5ZM34.4,55.321l7.825,4.495L50.1,55.306l-8.022-4.5Z" transform="translate(-32.19 -49.179)"/>
          </g>
        </g>
        <g id="Group_15" data-name="Group 15" transform="translate(18.472)">
          <g id="Group_14" data-name="Group 14">
            <path id="Path_18" data-name="Path 18" class="cls-2" d="M79.816,10.167,70.486,4.9l-.073-.042-9.025,5.339-.139.083V20.9l9.163,5.429.147.087.15-.086,9.172-5.239.076-.043v-10.8ZM70.416,5.2,79.5,10.338,70.561,15.49,61.7,10.362Zm0,20.773-8.866-5.253V10.633l8.866,5.129Zm9.248-5.108-8.951,5.113V15.763l8.951-5.157Z" transform="translate(-60.599 -4.216)"/>
            <path id="Path_19" data-name="Path 19" class="cls-2" d="M69.293,25.838l-.3-.176-.1.055-.024-.125L59.438,20V9.21l-.1-.059.1-.091V8.741l.3-.175V8.46l.09.052L69.143,3l.273.152,9.441,5.333.09-.052.015.112.282.158v.347l.118.066-.118.092V20.154L69.7,25.607v.122l-.105-.062ZM70,14.87v8.943l7.854-4.486V10.345Zm-9.163,4.318,7.768,4.6V14.869l-7.768-4.493Zm.7-10.047L69.3,13.634l7.825-4.507-7.963-4.5Z" transform="translate(-59.337 -3)"/>
          </g>
        </g>
      </g>
    </g>
    <path id="Path_93" data-name="Path 93" class="cls-2" d="M36.408-39.672,31.575-53.11h-18.5L8.341-39.672H0L18.1-88.259H26.71l18.1,48.588ZM29.49-59.928,24.956-73.1q-.5-1.324-1.374-4.17t-1.208-4.17a74.177,74.177,0,0,1-2.615,8.9L15.39-59.928ZM56.8-39.672H49.019v-51.5H56.8Zm25.751.662q-8.539,0-13.355-4.981T64.378-57.71q0-8.969,4.468-14.1t12.279-5.13q7.248,0,11.452,4.4t4.2,12.114v4.2H72.387q.165,5.329,2.879,8.192t7.646,2.863a28.225,28.225,0,0,0,6.04-.612,31.662,31.662,0,0,0,6.007-2.036v6.322a23.881,23.881,0,0,1-5.759,1.92A35.313,35.313,0,0,1,82.548-39.01ZM81.125-71.049a7.814,7.814,0,0,0-5.941,2.35,11.2,11.2,0,0,0-2.664,6.851H89.135q-.066-4.534-2.184-6.868A7.471,7.471,0,0,0,81.125-71.049Zm41.7-5.891a18.726,18.726,0,0,1,3.872.331l-.761,7.248a14.7,14.7,0,0,0-3.442-.4,9.961,9.961,0,0,0-7.563,3.045,11.006,11.006,0,0,0-2.9,7.91v19.131h-7.778V-76.278h6.09l1.026,6.454h.4a14.5,14.5,0,0,1,4.75-5.2A11.289,11.289,0,0,1,122.83-76.94Zm40.414,18.9q0,8.97-4.6,14T145.834-39.01a17.55,17.55,0,0,1-9.069-2.317,15.3,15.3,0,0,1-6.057-6.653,22.658,22.658,0,0,1-2.118-10.062q0-8.9,4.567-13.9t12.875-5q7.943,0,12.577,5.114T163.243-58.041Zm-26.644,0q0,12.676,9.367,12.676,9.267,0,9.267-12.676,0-12.544-9.334-12.544-4.9,0-7.1,3.244T136.6-58.041Z" transform="translate(189.514 149.23)"/>
  </g>
</svg>
