<svg width="223" height="66" viewBox="0 0 223 66" fill="none" xmlns="http://www.w3.org/2000/svg">
<path fill-rule="evenodd" clip-rule="evenodd" d="M32.7547 46.7217L32.5698 46.6126L32.513 46.6447L32.497 46.5695L27.1374 43.4197L21.5538 46.5837V46.6558L21.4922 46.6188L21.3072 46.7236L21.1222 46.6145L21.0655 46.6466L21.0495 46.5713L15.1817 43.1272V36.4739L15.12 36.437L15.1817 36.3808V36.1835L15.3667 36.075V36.0134L15.4197 36.0442L15.4369 36.0337L20.8839 32.8354V26.5799L20.8223 26.543L20.8839 26.4868V26.2895L21.0689 26.181V26.1194L21.1225 26.1496L26.5707 22.9493V16.7705L26.509 16.7342L26.5707 16.678V16.4814L26.7557 16.3735V16.3081L26.8111 16.3402L32.5544 12.9417L32.7227 13.0354L38.5437 16.3235L38.5992 16.2915L38.6084 16.3605L38.7823 16.4579V16.6719L38.855 16.7126L38.7823 16.7693V23.0467L44.1993 26.1317L44.2573 26.0984L44.2665 26.1699L44.4392 26.2679V26.4819L44.5095 26.5213L44.4392 26.578V32.8464L50.1337 36.0381L50.1867 36.0079L50.196 36.0726L50.3717 36.17V36.3846L50.4457 36.4259L50.3717 36.4826V43.2327L44.4386 46.5936L44.4392 46.6682L44.3775 46.6312L44.3584 46.6423L44.3405 46.6096L44.1919 46.5227L43.9453 46.6608V46.5591L43.9293 46.5862L38.562 43.4316L33.0081 46.5793V46.6515L32.9465 46.6145L32.7547 46.7217ZM26.9145 23.753L30.8527 25.9622L31.8329 26.5434L27.0051 29.3082L22.1805 26.5368L26.9145 23.753ZM38.3164 23.7843L35.8623 25.1865L33.6007 26.5367L38.3482 29.3063L43.1333 26.5281L38.3164 23.7843ZM37.9253 17.4703V22.9473L35.4498 24.4222L33.0828 25.7742V20.2603L37.9253 17.4703ZM27.4333 22.9226L31.3192 25.2237L32.2227 25.7307V20.2596L27.4333 17.4894V22.9226ZM33.1794 27.304V32.7348L37.9221 35.5681V30.0684L33.1794 27.304ZM33.1863 39.9599L38.0652 37.1718V42.711L33.1863 45.4757V39.9599ZM43.7628 45.4776L38.9413 42.6441V37.2083L43.7628 39.9754V45.4776ZM27.4911 42.6204L32.325 45.4615V39.9593L27.4911 37.1848V42.6204ZM27.9271 36.4264L32.756 39.1979L37.6206 36.4178L32.6703 33.6433L27.9271 36.4264ZM21.7388 39.9618V45.4776L26.6257 42.7086V37.1694L21.7388 39.9618ZM16.0449 42.6241L20.8787 45.4652V39.9631L16.0449 37.1885V42.6241ZM16.4808 36.4302L21.3097 39.2016L26.175 36.4215L21.224 33.647L16.4808 36.4302ZM38.7791 30.0678V35.5804L43.5784 32.8176V27.2815L38.7791 30.0678ZM44.6241 39.976V45.4918L49.511 42.7222V37.183L44.6241 39.976ZM39.3643 36.4425L44.1944 39.214L49.0584 36.4339L44.1075 33.6594L39.3643 36.4425ZM27.4306 30.0697V35.5873L32.3125 32.8183V27.2773L27.4306 30.0697ZM21.7409 32.7301L26.5698 35.5713V30.0691L21.7409 27.2945V32.7301ZM27.8648 16.728L32.6512 19.4982L37.4758 16.7194L32.5661 13.9448L27.8648 16.728Z" fill="#231F20"/>
<path fill-rule="evenodd" clip-rule="evenodd" d="M37.4336 2.43361L63.5664 28.5664C66.0147 31.0147 66.0152 34.9848 63.5664 37.4336L37.4336 63.5664C34.9852 66.0147 31.0147 66.0147 28.5664 63.5664L2.43359 37.4336C-0.0151962 34.9848 -0.0147525 31.0147 2.4336 28.5664L28.5664 2.43361C31.0152 -0.0151821 34.9848 -0.0151821 37.4336 2.43361ZM36.6831 3.18409C34.6524 1.15337 31.348 1.15293 29.3169 3.18409L3.18408 29.3169C1.15336 31.3476 1.15291 34.652 3.18408 36.6831L29.3169 62.8159C31.3476 64.8466 34.6524 64.8466 36.6831 62.8159L62.8159 36.6831C64.8466 34.6524 64.8466 31.3476 62.8159 29.3169L36.6831 3.18409Z" fill="#231F20"/>
<path fill-rule="evenodd" clip-rule="evenodd" d="M220.265 40.0467C221.447 37.4645 222.038 34.4467 222.038 30.9934C222.038 27.54 221.447 24.5378 220.265 21.9867C219.114 19.4045 217.403 17.4134 215.132 16.0134C212.861 14.5823 210.061 13.8667 206.732 13.8667C203.247 13.8667 200.354 14.5823 198.052 16.0134C195.781 17.4445 194.085 19.4356 192.965 21.9867C191.845 24.5378 191.285 27.5245 191.285 30.9467C191.285 34.4 191.845 37.4178 192.965 40C194.085 42.5823 195.781 44.5889 198.052 46.02C200.354 47.4511 203.232 48.1667 206.685 48.1667C210.045 48.1667 212.861 47.4511 215.132 46.02C217.403 44.5889 219.114 42.5978 220.265 40.0467ZM198.378 40.9334C196.605 38.5067 195.718 35.1934 195.718 30.9934C195.718 26.7934 196.605 23.5111 198.378 21.1467C200.183 18.7511 202.967 17.5534 206.732 17.5534C210.496 17.5534 213.249 18.7511 214.992 21.1467C216.734 23.5111 217.605 26.7934 217.605 30.9934C217.605 35.1934 216.734 38.5067 214.992 40.9334C213.249 43.3289 210.481 44.5267 206.685 44.5267C202.921 44.5267 200.152 43.3289 198.378 40.9334Z" fill="#231F20"/>
<path fill-rule="evenodd" clip-rule="evenodd" d="M104.633 47.7L100.62 37.3867H87.4133L83.4467 47.7H79.2L92.22 14.24H96L108.973 47.7H104.633ZM99.36 33.6534L95.6267 23.5734C95.5333 23.3245 95.3778 22.8734 95.16 22.22C94.9422 21.5667 94.7244 20.8978 94.5067 20.2134C94.32 19.4978 94.1644 18.9534 94.04 18.58C93.8222 19.5445 93.5733 20.4934 93.2933 21.4267C93.0133 22.3289 92.78 23.0445 92.5933 23.5734L88.8133 33.6534H99.36Z" fill="#231F20"/>
<path d="M113.531 47.7V14.38H117.731V43.9667H132.291V47.7H113.531Z" fill="#231F20"/>
<path d="M138.004 47.7H156.624V44.0134H142.204V32.1134H155.784V28.4734H142.204V18.0667H156.624V14.38H138.004V47.7Z" fill="#231F20"/>
<path fill-rule="evenodd" clip-rule="evenodd" d="M173.128 14.38C177.266 14.38 180.315 15.1734 182.275 16.76C184.266 18.3156 185.262 20.68 185.262 23.8534C185.262 25.6267 184.935 27.1045 184.282 28.2867C183.628 29.4689 182.788 30.4178 181.762 31.1334C180.766 31.8178 179.708 32.3623 178.588 32.7667L187.735 47.7H182.835L174.762 33.9334H168.135V47.7H163.935V14.38H173.128ZM172.895 18.02H168.135V30.3867H173.128C175.835 30.3867 177.811 29.8578 179.055 28.8C180.299 27.7111 180.922 26.1245 180.922 24.04C180.922 21.8623 180.268 20.3223 178.962 19.42C177.655 18.4867 175.633 18.02 172.895 18.02Z" fill="#231F20"/>
</svg>
